<svg id="Layer_1" data-name="Layer 1" xmlns="http://www.w3.org/2000/svg" viewBox="0 0 451.32 444.79"><title>Cag 3</title><g id="_3" data-name="3"><path d="M9.47,551.28c6.1.63,12.21,1.92,18.29,1.76,17.54-.48,35.07-2.19,52.6-2.22,18.79,0,37.58,1.86,56.38,1.86a403.08,403.08,0,0,0,45-2.63c29.36-3.31,58.68-5.78,88.21-2.9,1.63.15,3.22.55,6.66,1.17-2.24-2.52-3.46-3.92-4.7-5.3-12.65-14.09-17.59-36.08,5.76-50.69a36.84,36.84,0,0,0,5.05-3.71c5.08-4.56,5.42-9.4.37-14-4.47-4.07-9.61-7.4-14.35-11.18-10.13-8.07-10.17-16.05-.22-24.25a3.65,3.65,0,0,1,.49-.39c27.1-14.9,27-39.22,22.58-65.06-.23-1.38,0-4,.63-4.19,4.46-1.47,3.17-4.33,2.59-7.52-1.92-10.48-3.42-21-5.38-31.5a17,17,0,0,0-3.29-6.52c-6-8.19-12.85-15.88-18.21-24.47A126.43,126.43,0,0,1,255,273.07c-1.33-4-.74-8.58-2.88-13.1-4.2-8.91-6.83-18.56-10-27.92a45,45,0,0,1-1.11-5.28l5.39.49c-.08-.42,0-.89-.22-1-5.94-4.17-6.24-10.16-6.87-16.82-.6-6.34-4.22-12.36-6.18-18.62-3.12-10-6.94-19.93-8.65-30.19-1.45-8.66-.37-17.75-.27-26.65,0-1,.9-2.09,2.31-5.14l12.57,18.84c.68,1,1.21,2.74,2.09,2.94,10.23,2.35,10.18,12.37,13.91,19.21,5.18,9.47,7.17,21.06,13.61,29.34,5.27,6.78,4.42,14.7,8.54,21.28,1.85,3,1.28,7.42,1.83,11.34l5.17-1.52v15.49l4.76-2.07v29l1.51.37q1.56-4.65,3.11-9.31l1.47.1c-.16,3-.23,6.1-.51,9.14-1.34,14.44-3.88,28.89-3.73,43.31.11,10.18,3.76,20.33,6,30.45q2,8.85,4.64,17.52c.42,1.37,2.2,2.31,3.35,3.45.88-1.37,2.43-2.69,2.53-4.11.8-11.89,1.38-23.79,2-35.69.51-10.65,1.53-21.32,1.22-31.95-.23-8-.63-16.09-4.56-23.71-2.42-4.68-5.3-11.28-3.72-15.38,2.67-6.91-1.46-13.37.93-20.59,1.84,1.52,3.16,2.6,4.62,3.79.26-.5.79-1,.74-1.51-.44-3.72-1.24-7.43-1.39-11.16-.09-2.27.77-4.59,1.25-6.88.19-.9.81-1.79.74-2.65-.41-5.76-.95-11.51-1.58-18.72l6,3.59a7.91,7.91,0,0,0,.64-1.68c.65-4.92,1.25-9.85,1.88-14.77.13-1,.42-2,.52-3,.66-6.33,1.25-12.67,1.94-19,.65-6,1.38-12,2.13-18,.85-6.8,1.29-13.69,2.83-20.33.7-3,3.62-5.55,5.89-8.8.85,1.24,2,2.25,2.28,3.46,1.35,6.67,3.14,13.36,3.49,20.11.43,8.12-1,16.35-.53,24.47.33,5.2.24,10-1.49,14.9-.59,1.7.73,4.29,1.67,6.24,4.76,9.91.72,23.5-9.63,28.76,1-2.21,1.28-4.08,2.32-4.8,5.88-4,4.9-10.61,6.11-16.28.21-1-2.18-2.6-3.23-3.78V126.39c-8.94,27.1-11.69,55-13.27,84.2l-5.65-4c1.1,7.62,2.07,14.36,3.15,21.87L310,226c.58,8.91,1.13,17.38,1.68,25.86l-1,.49-4-6.34-1.57.34c2.38,13.82,4.77,27.63,7.37,42.66,9.82-10.68,10.15-23.45,12.73-35.63l-4.43,3.15-1.1-.85c2.86-4.43,6.09-8.68,8.39-13.38.89-1.82-.35-4.67-1.22-6.87.84-4.55,1.31-9.23,2.68-13.62.72-2.32,3-4.15,4.87-6.55,4.8,6.19-9.58,11.33.59,15.66-2.35,10.48-3.07,21.2-7.31,30.27-3.8,8.13-2.26,18-9.54,24.88-6.13,5.79-5.31,14.27-5.76,21.83-1.12,18.6-1.66,37.23-2.39,55.84a18.91,18.91,0,0,0,.44,3.21l12.46,2.73c-4.48,22.86-.55,43.47,14.26,61.4a25,25,0,0,0,7,5.82c10.53,5.82,12.55,15,4.79,24.4a55.83,55.83,0,0,1-9,8.7c-12.56,9.58-12.44,14.9.84,23.81,13.48,9,17.42,20.27,12.45,35.82-1.21,3.77-2.24,7.74-4.25,11.07s-5.16,5.9-8.6,9.68l33.22,1.91c-18.21-22.51-17.32-29,6.92-53.76-5-2.74-10-5.23-14.72-8.12-10.07-6.11-10.41-14.93-1-22.08,2-1.51,4.16-2.8,6.25-4.2,11.39-7.65,18.46-18.08,20.09-31.83.76-6.44,1.16-12.92,1.62-19.38.24-3.39-2.21-7.83,3.88-8.77.39-.06.78-3,.43-4.49-7.45-31.08-14.91-62.16-22.74-93.15-.59-2.33-3.61-5-6-5.72-7.38-2.3-15.84-13.93-14.54-21.11,1.92-10.57,12.64-18.31,23.67-17.11,8.79,1,15.18,8.92,14.95,18.61-.28,11.56-4.24,16.66-16.44,20.46,1,4.29,2,8.64,3.31,14.63,4.15-9.62,6.61-19.27,17.72-20.8s17.81,4,21.81,14.35c9.16-18.21,15.54-22.28,27.77-18.41,9.75,3.08,15.49,12.76,13.75,23.21s-9.81,14.9-27.83,15c-1.67,6.67-3.37,13.51-5.09,20.36Q421,375.58,414.6,401.12c-.3,1.2-1.08,3.12-.6,3.55,7.26,6.55,3.35,15.38,4.29,22.95a68,68,0,0,0,17.17,37.54c2.66,3,6.92,4.55,10.14,7.14,7.57,6.05,7.43,13.7-.79,19-5.13,3.32-11,5.47-17.14,8.42,3.69,2.34,7.19,4.47,10.6,6.73,8.88,5.87,15.33,13.33,13.5,24.79a30.75,30.75,0,0,1-23.3,25.14,38.73,38.73,0,0,0-7.13,2.11c-12.82,5.52-25.3,3.81-37.78-1.26a41,41,0,0,0-10.09-2.61,104,104,0,0,0-16.23-1.13c-9.85.28-19.43-.41-29.55,2.41-14.86,4.14-30.32,2.58-45.26-3.89-7-3-15.5-2.71-23.37-3.2-26.62-1.66-53,1.64-79.47,3.77-22.84,1.83-45.92.66-68.9.88-18.12.17-36.25.48-54.38.67-13.75.14-27.5.24-41.25.18-1.93,0-3.85-1-5.77-1.58Zm306.3-.24,0-.37h11.3c13.5,0,25.92-14.3,23.75-27.69-1-6-3.05-11.93-9.78-13.22-6.07-1.17-12.42-1.23-18.64-1.19-17.7.1-35.41.68-53.11.65-3.81,0-4.57,1.57-5.14,4.54-2.14,11.14,7.08,29.67,17.4,34.68a9.65,9.65,0,0,0,3.57.94C295.36,550,305.57,550.5,315.77,551ZM261.61,278.37l-1.57.9,24.69,40,2.11-1.08-16.38-63.28,2.05-.54c2.39,8.69,4.81,17.37,7.14,26.08s4.51,17.27,6.75,25.9l1.56-.25c1.15-8.53,2.3-17.05,3.63-27l-4.07,6.25c-1.14-2.95-2.8-5.59-3.07-8.36-.29-3,.82-6.06,1.14-9.11.27-2.61.29-5.24.42-7.86l-1.66.16-2,7.42-2.05-.4c.47-2.89,1.05-5.78,1.37-8.69.18-1.63.46-3.62-.29-4.84-.48-.79-2.76-.47-4.67-.7-.57-7.25-1.15-14.75-1.77-22.63l-5.28,5.94V211.12l-2.06-.29c-4,3.29.32,8.54-1.64,12.85-.72-.94-1.58-1.55-1.59-2.17-.08-4.39-.68-8.17-4.68-11.29-2.05-1.6-3.92-5.72-3.3-8,1.58-5.76,1.35-10.6-1.86-15.72-1.2-1.91-.84-4.87-1-7.36-.15-2.69,0-5.4,0-8.11l-2.15,0c-.26,3.37-.51,6.73-.9,11.77-1.88-6.41-2.95-11-4.62-15.38-1-2.52-3.92-4.52-4.24-7-1.36-10.24-7.74-17.11-14.78-24.64-3.5,16.15,4,30.13,5.76,44.78.74,6,5.59,11.5,8.1,16.34,0,2.42-.38,4.26.08,5.85,1.18,4.06,3.27,7.93,4,12.05.81,4.62,1.24,8.78,6.11,11.39,2.06,1.1,3,4.21,4.49,6.41L254,234l-8.66-3.74-1.22,1c4.16,6.6,8.31,13.21,13.15,20.91l-6.29-2a14.88,14.88,0,0,0,5.21,5.3c2.2,1.49,4.49,2.87,6.74,4.3l-3.25,1.36c-.65,1.62-2.14,3.47-1.78,4.82.62,2.31,2.78,4.18,3.58,6.48C262.1,274.23,261.61,276.38,261.61,278.37Zm5,165.6.66,2.1h77.3c-2.6-3.11-4.82-8.26-8.53-9.76-14.77-6-22.28-17.22-25.21-32-1.9-9.56-2.77-19.33-4.17-29.54l-9.92-.86c-1.13,14.3-1.21,27.69-3.49,40.7C290.67,429.21,277.55,436,266.59,444Zm97,82c25.53,6,50.17,2.85,74.76-1,1.13-.18,3-3.37,2.59-4.24-2.39-5-4.68-10.36-8.36-14.36a18.15,18.15,0,0,0-11.13-5.25c-10.35-.75-20.79-.34-31.19-.36-2.24,0-4.89-.66-6.65.3C373.72,506.41,366.34,514,363.54,526ZM289.17,477.9c1,8.33-4.11,12.41-9.7,16.48-4.39,3.19-8.23,7.12-12.31,10.72l.92,1.84a59.49,59.49,0,0,0,7.83.85c18.38-.34,36.75-.81,55.13-1.24,8-.19,15.9.1,20.87,8.32-1-9.42-6.33-15.3-13.85-19.65-7-4.05-11.9-9.22-9.26-17.32Zm106-67.71c.7,25.88-4.45,48.8-31,61.15l1.32,1.35h73.32c-2.95-2.53-4.94-5-7.51-6.29-11.36-5.76-18.83-14.55-21.42-27A126.91,126.91,0,0,1,408,421.94C407.28,411.51,407.39,411.51,395.17,410.19ZM441.75,527c-26.6,4.3-52,7.12-78.19,1.78.47,2.43.63,4.05,1.09,5.58,2.69,8.83,12.52,18.5,19.12,18.94,9.17.62,18.34,1.47,27.52,1.81,4.27.16,9.27.63,12.73-1.25C434.11,548.37,439.12,538.89,441.75,527ZM264.94,447.54c-2.52,6.58,3,15.66,12,18.34,18.76,5.57,37.58,5.62,56.19-.66a32.7,32.7,0,0,0,9.77-5.44c4.88-3.91,4-8.3-2-9.95a45.82,45.82,0,0,0-12.31-1.7c-16.52.1-33,.66-49.56.79C274.55,449,270.06,448.07,264.94,447.54ZM394.6,495c12.23-1.75,22.38-2.9,32.39-4.79a32.18,32.18,0,0,0,11.37-4.94c1.68-1.11,2.55-4.11,2.77-6.36.07-.74-2.95-2.36-4.7-2.61a139.81,139.81,0,0,0-18.67-1.82c-16.94-.06-33.88.29-50.82.62-2,0-5.49.7-5.63,1.54a12.38,12.38,0,0,0,1.15,7.37,9.34,9.34,0,0,0,5.08,4.42C377.06,491,386.72,493.08,394.6,495Zm25.68-177.89c-1.77,7-4.64,13.2-11.82,15.34-4.12,1.23-5.08,3.33-4.86,7.21,1,17.93,1.71,35.88,2.73,53.81.22,3.82,1.25,7.59,1.91,11.38h2a28.41,28.41,0,0,0,2.16-4.79q8.65-34.29,17.07-68.63a6.69,6.69,0,0,0-.92-4.95C426.19,323.3,423.38,320.53,420.28,317.06Zm37.77-5.71a18.28,18.28,0,0,0-18-18.51c-9-.16-17.33,8.2-17.56,17.69-.19,7.91,8.2,16.53,16.37,16.83C449.94,327.78,457.83,321.2,458.05,311.35Zm-40.55,4.2c-.08-9.27-9.27-18.72-18.1-18.12-6.54.45-16.1,9.22-16.32,18.21-.18,7.25,9.58,16.07,17.84,16.21C409.39,332,417.57,323.94,417.5,315.55Zm-51.21-22.92c1.07.72,2.21,1.11,2.24,1.57.39,6.15,4.33,5.48,8.38,4.39,10.54-2.84,12-7.56,13.26-18.53.65-5.94-5.2-13-10.87-14.59-7.14-2-17.06,2.29-20.92,9.14-2.25,4-3.6,8.1-.76,12.34,2.05,3.06,4.32,6,6.56,8.89.31.4,1,.51,1.58.78C365.93,295.36,366.07,294.27,366.29,292.63Zm15.65,28.91-.9.44a20.91,20.91,0,0,0,.31,3q6.24,25.85,12.55,51.68c2,8.32,4,16.65,6.22,24.93.29,1.12,1.68,1.94,2.57,2.9.67-1.1,1.79-2.15,1.93-3.32a35.52,35.52,0,0,0-.24-6.25c-1-16.88-2.25-33.75-2.94-50.64-.25-6.2.11-11.52-8.51-11.87-2.47-.1-5-3.36-7.17-5.49C384.22,325.39,383.2,323.34,381.94,321.54Zm-71.2,53.34c-2.21,20.34,5.11,52,21.11,55.69-3.61-8.52-8.63-17.31-10.94-26.75s-2-19.7-2.85-30.23Zm116.7,84.75c-2.1-3.79-4.42-7.49-6.26-11.41-5.1-10.88-5.31-22.54-5.19-34.26,0-1.46-1.34-2.93-2.06-4.4-1,1.3-2.95,2.65-2.89,3.9.44,9.52.45,19.18,2.22,28.49C414.75,449.75,419.93,456,427.44,459.63ZM283.31,470.28c9,11.47,47.86,7.29,57.76-5.49C322.71,472.85,303.7,474.2,283.31,470.28ZM441.8,513.22c5.95,14.89-.24,26.78-9.6,38.42a26.69,26.69,0,0,0,17.33-21C450.51,523.49,447.43,517.82,441.8,513.22Zm-10.41-20.16-46.91,3.71C396.14,502.62,425.06,500.12,431.39,493.06Zm-136.9,59.88,0,1.44h29.8l0-1.44ZM261,188.75c-3.52,9.75-1.61,17.86,4.49,19.1C264,201.53,262.51,195.32,261,188.75Zm176.4,303.09,1.22,1.35c3.17-3.33,6.6-6.47,9.34-10.13.77-1-.49-3.59-1-6.69C443.05,482.59,440.21,487.22,437.36,491.84Zm-92.35-51,4.17,14.39C352.51,449.07,351.65,445.85,345,440.82Zm65,118.8c0-.8,0-1.6.07-2.39H395l-.07,1.58Z" transform="translate(-9.29 -117.13)"/></g></svg>