<svg id="Layer_1" data-name="Layer 1" xmlns="http://www.w3.org/2000/svg" viewBox="0 0 457.53 465.54"><title>Cag 2</title><g id="_2" data-name="2"><path d="M64,77.61c4.5,6.85,7.91,12,11.27,17.2A4.67,4.67,0,0,1,76,96.55c.92,5.63,1.75,11.28,2.71,16.9,1.25,7.35,2.66,14.68,3.88,22,1.17,7,2.11,14.11,3.28,21.15,1.25,7.47,2.64,14.93,4,22.38.11.6.62,1.15.66,1.74.59,10.08,1.13,20.17,1.69,30.26a5.32,5.32,0,0,0,.1,1.84c6.08,13.78,1.9,27.32-1.06,40.9a17.85,17.85,0,0,0-.24,4.95c2,29.71,4,59.42,6.57,89.17,1-12.21,2.09-24.41,3-36.63.86-10.91,2.4-21.85,2.16-32.75-.22-9.79-2.68-19.53-3.74-29.33-.75-6.92-.86-13.89-1.18-20.84-.14-3.13-.14-6.27-.17-9.41s-3.68-7.28,2.49-9.26c.42-.13.49-1.51.48-2.31-.14-9.53-.6-19.07-.34-28.6.08-3.22,2.62-6.36,2.88-9.61,1-12.46,1.45-24.95,2.31-37.42.2-2.95,1.46-5.83,1.8-8.79,1.61-14,3-27.94,4.64-41.91a10,10,0,0,1,1.93-4.57,4.45,4.45,0,0,1,3.32-1.58c1,.1,1.93,1.4,2.66,2.32.35.43.2,1.21.22,1.83.27,10.82,6.24,21.22,3.08,32.31,6.33,5.76-.48,12.9,2.73,19.74,2.32,4.94-1.6,12.27-2.87,18.51a47.07,47.07,0,0,1-2,5.77c5.49-1.82,9.22-.45,5.85,4.28-4.53,6.38-1.92,13.31-3.87,19.8a115.8,115.8,0,0,0-4.56,22c-.82,8.39-.36,16.88-.44,25.33a9.2,9.2,0,0,1,.06,2.45c-3.65,12-7.59,23.95-11,36a72.2,72.2,0,0,0-2,14.66c-1.57,23.76-3,47.53-4.41,71.29a7.88,7.88,0,0,0,.45,2c2.22.38,4.46,1.17,6.66,1.07,7.59-.33,12.11,1.63,10.79,9.55-.19,1.15,1.8,3.08,3.3,3.86a49.65,49.65,0,0,0,7.37,2.7c6.92-4.2,13.59-8,19.83-12.26,1.31-.9,1.59-3.7,1.41-5.55-.48-5.09,2.81-6.68,7.44-6.87,6.91-.29,13.83-.23,20.75-.35,5.68-.1,8.21,2.18,8.42,7.46.08,2,2.15,5.29,4.07,5.84,15.37,4.37,22.21,14.93,25.38,27.86,3.94,16.07.64,28.76-10.1,42.33,9.82,3.62,12.45,11.27,12.68,19.66.48,17.79.83,35.61.41,53.39-.13,5.18-3,10.3-4.54,15.09,6.57-.26,14.62-1.09,22.62-.81,22.69.82,45.36,2.4,68.06,3.12,23.24.73,46.51.75,69.76,1.21,18.39.36,36.79.7,55.17,1.46,15.12.63,30.24,3.32,45.27-.73a8.41,8.41,0,0,1,2.56.19l.37,1.86c-6,.89-12,2.54-18,2.48-11.26-.1-22.49-1.53-33.76-1.79-18.66-.44-37.36-1-56-.42-34.45,1.12-68.49-3.46-102.73-4.63-24.51-.84-49.17,2-73.77,2.78-14.42.45-28.87.08-43.73.08.9,7.26-5.13,10.2-12.6,11.83-24.08,5.25-48.14,7.27-72.22-.08-5.62-1.71-9.54-4.81-9.6-10.14-.21-21.91-.59-43.84.32-65.72.26-6.09,4.75-12,7.79-19.2-12.22-15.2-10.67-34-6.57-52.84,1.73-8,7.62-13.43,16.19-16.6,2.18-.81,5.45-3.17,5.28-4.52-1-8.16,3.12-11.1,11.59-10,0-6.7.79-12.93-.14-18.94-3.52-22.66-7.91-45.21-11.31-67.89-1.38-9.21-8.28-14.82-14.07-21.35-4.9-5.53-9.6-11.19-14.39-16.79l1.74-1.85,9.59,3c-3.06-5.42-.45-11.63-7.23-14.76-.78-.36-1.2-2.65-.74-3.67,2.54-5.63.18-10.43-5.79-13.71-3.48-1.91-6-5.19-9-7.86l1.65-1.73,8.55,2.77a44.35,44.35,0,0,0-2-4.64c-2.81-4.77-5.73-9.5-8.6-14.25a85.18,85.18,0,0,1-4.35-7.4c-1-2-2.71-5.12-1.8-6.25,3.41-4.27-.78-6.83-1.85-10s-2.5-6.64-3.57-10A76.77,76.77,0,0,1,25,129.34a94,94,0,0,1-.93-10.06c-.1-1.63.78-3.72-.05-4.83-4.7-6.26-2.7-12.32,0-18.48a3.11,3.11,0,0,0,0-1.76C21.7,83,22.35,80.89,30.63,72.7c9.11,7.87,12.55,17.53,11.9,28.89-.21,3.63,2.72,7.36,3.91,11.12.68,2.15.59,4.48,1.13,6.66,1.09,4.36,2.4,8.67,3.58,13,.43,1.56.67,3.16,1.14,4.71,1.44,4.76,3,9.51,4.45,14.25.12.39.59.77.55,1.12-1.39,12.13,6.32,22,9.92,33a20.9,20.9,0,0,1,1,4.88c.8,10.1-2,20.84,8.67,30.19-.73-4.22-1.35-7.45-1.85-10.71-.81-5.34-1.55-10.7-2.29-16.06-.63-4.6-1.17-9.21-1.8-13.81-1.13-8.2-2.73-16.36-3.34-24.59-.8-10.59-.48-21.25-1.28-31.84-.79-10.41-2.62-20.76-3.48-31.17C62.46,88,63.48,83.58,64,77.61Zm1.55,452.7c13.37,5.7,29.12,5.72,44.71,4.48A180.46,180.46,0,0,0,142.48,529c6.9-1.86,6.89-8,.64-11.4a16.48,16.48,0,0,1-9.18-13.79c-1-10.51-1.46-21.07-2.83-31.53-1.51-11.43-5.87-21.91-20-24.74-7.91-1.59-16.37-1.07-24.59-1.26C72.32,446,66.93,449.72,66,462.61c-.95,13.17-.37,26.43-.42,39.65C65.53,511.22,65.56,520.18,65.56,530.31Zm71-91.58c8.49,5.44,11.78,9.74,12.49,21.21,1.07,17.36,1,34.77,1.15,52.16,0,3.93.84,6.44,5.88,6.42,14-.07,28.07.67,42-.27s18.85-6.59,19-19.23c.15-15.54.11-31.09-.27-46.63a40.59,40.59,0,0,0-2.75-13.3c-2.3-6-7.16-7.24-13.65-5.43-19.1,5.36-38.21,6.46-57.64-1.48Zm-42.2,1.92,0-.48c3.22,0,6.45.16,9.65,0,20.64-1.2,29.5-9.74,31.84-23.61a65.53,65.53,0,0,0-1.07-25.63c-3.13-13.22-10-17-25.18-16.94a73.48,73.48,0,0,1-12.22-1C91.9,372,86.12,369,81.07,369.83c-8.57,1.47-16.57,5.48-19.4,14a64.54,64.54,0,0,0-3.43,14.39C57.12,411.07,57.07,423.89,66,435c1.34,1.67,3.65,3.49,5.75,3.76C79.24,439.74,86.83,440.08,94.38,440.65ZM143.8,429a73.71,73.71,0,0,0,8.68.88c15.19-.27,30.38-.56,45.56-1.19a11.4,11.4,0,0,0,6.8-3.16c14.45-14.6,13.76-44.42-2.4-57.52-5.46-4.43-13.93-6.83-21.44-8-6.72-1-14.08.68-21.05,1.74-9.78,1.5-19.72,3.05-26.33,10.91C145.59,384.91,151.42,402.36,143.8,429ZM28.88,76.49c-.93,6.36-2.14,11.23-2.2,16.12s1.1,9.58,1.63,14.37c.05.52-.77,1.1-.74,1.62.43,5.77.83,11.54,1.49,17.29.24,2.06,1.61,4,1.72,6.07.32,6.24-1.55,12.39,4.46,18.12,2.15,2.07,9.64,7.78,1.06,12.38,1.77,2.13,3.72,3.94,5,6.07,3.36,5.77,6.21,11.78,9.7,17.49,2.36,3.86,3.67,7-2.78,8.65C57.39,199.5,62.06,208.84,59,214l12.15,16.33L73,230c-.78-4.28-.1-9.56-2.68-12.61-5-5.92-4.85-12.28-5-18.77-.15-7.49-.62-14.64-5.23-21.4a48.63,48.63,0,0,1-6.29-14.56C50.64,151,48,139.29,45.37,127.58c-.76-3.36-.7-6.88-1.54-10.22-2.06-8.18-6.17-16.3-6.12-24.43C37.76,86.2,35.07,82.25,28.88,76.49Zm91.66,87.06c-1-2.06-2.81-4.1-2.81-6.13,0-2.57,1.66-5.11,2.24-7.72,1-4.4,2.38-8.86,2.28-13.27-.16-7.54-1.48-15.05-2-22.59-.29-4.09,1.89-9.6-.34-12-4-4.4-2.5-8.32-2.24-12.67.2-3.41,0-6.84,0-10.26l-2.1-.11c-1.46,10.41-3.19,20.8-4.28,31.24-1.15,11-1.68,21.95-2.46,32.94-.37,5.29,0,10.71-1.24,15.84-1,4.33-2.57,8-.48,12.71,1.41,3.21-.43,7.58-.82,11.43a69,69,0,0,0-.71,7.83c0,1.31,1.49,2.62,1.46,3.91-.24,8.32-2.77,16.37-3.11,24.82-.3,7.66-.51,15.42-1,23.13-.15,2.42-.37,4.84-.47,7.27-.07,2,0,4,0,7.54,3.81-6.15,7.64-10.37,9.07-15.17,1.65-5.54.3-11.79,1.84-17.38,2.63-9.49-3.39-19.9,4.07-28.75.21-.25,0-.79,0-1.18.27-3.2.41-6.41.88-9.59.39-2.58,1.5-5.1,1.71-7.69C120.43,172.79,120.41,167.89,120.54,163.55ZM85.4,244.31l2.44.39c1-2.59,2.35-5.13,2.79-7.79A115.1,115.1,0,0,0,91.5,225c.1-1.74.81-3.78.07-5.18-2.23-4.19-3.52-8.27-1.9-12.9.46-1.3.07-2.87-.1-4.31-.72-6.17-1.55-12.33-2.26-18.51-.82-7-.06-13.94-3.5-20.86-3-6.1-3.79-13.17-5.07-19.88-.95-5-.79-10.07-1.77-15s-3-9.78-4.17-14.74c-1.75-7.73-3.09-15.54-4.69-23.3-.07-.36-1-.57-2.52-1.39.49,3.89.91,7.09,1.31,10.28.72,5.83,1.68,11.65,2.07,17.5s-.38,11.82.47,17.6c1,6.88,3.26,13.6,4.8,20.42a27.51,27.51,0,0,1,.7,7.39c0,.64-2,1.2-2.74,1.6q3.28,12.45,6.58,24.9l-2.61.47c1.31,5.91,3,11.39,3.62,16.95.68,6,.12,12.15.66,18.19.32,3.5,1.77,6.91,2.65,10.38C83.91,237.83,84.64,241.07,85.4,244.31Zm60.32,271.26c0-19.87.31-39.58-.26-59.27-.11-3.95-3.25-8-5.64-11.66-1-1.5-4-3.21-5.55-2.89-5.46,1.11-10.72,3.07-16.62,4.89,10.86,4.82,14.47,13.53,15.9,22.87,1.63,10.6,2,21.36,3,32.05C137.2,507.62,138.92,513.19,145.72,515.57ZM89.52,306.52c1.88-28.16-.69-55.68-15.06-81.5ZM70.45,441.12c-8.23,5.24-11.36,11.15-11.46,17.64-.32,21.46,0,42.93.18,64.4,0,1.07,1,2.14,1.5,3.21A16.9,16.9,0,0,0,63.13,517c-.3-14.87-1.1-29.73-1.11-44.6,0-9.27.6-18.62,8.33-26.09C71.09,445.63,70.45,443.78,70.45,441.12ZM125.52,438l.76,2c3.25-1.7,7.36-2.78,9.62-5.23,9-9.77,9.52-21.66,8.32-33.5-.82-8.1-3.52-15.91-9.69-22.32C141,399.92,145.87,420.53,125.52,438Zm35.8-79.36c13.41,2.2,22.77-1,21.85-6.91H163.31C162.55,354.37,161.93,356.49,161.32,358.63Zm-8.16,73.18,0,1.76c13.57,2.25,27.07,2.46,40.4-1.76Zm-39-71.15c-4.29.34-8.43,0-12,1.18-2.36.78-3.85,3.67-5.73,5.62,2,.65,4,1.66,6,1.87a27.12,27.12,0,0,0,6.82-.5C114.32,368.06,116.47,365.66,114.16,360.66ZM59.21,233,58,234.18,75.8,247.76l1.15-.27-7.24-12.56Zm33.56,135.1c.81-2.46,1.41-4.31,2.08-6.36l-12-1C81.4,369.29,89.35,365.45,92.77,368.07Z" transform="translate(-21.23 -72.7)"/></g></svg>