<svg id="Layer_1" data-name="Layer 1" xmlns="http://www.w3.org/2000/svg" viewBox="0 0 480.05 568.49"><title>Cag 1(500 by 621)</title><g id="_1" data-name="1"><path d="M10,534.66c58.45,10.25,118,15.45,175.25,34.25-14.1-17.63-28.87-34.95-22.07-59.21C169.9,485.63,191,478,208.92,472.38c-4.78-6.08-10.35-13.2-15.94-20.31-.29-.36-.68-.66-1-1-16.47-16.86-14.09-30.46,7.08-41.05,12.64-6.33,26.1-11.53,37.61-19.52,21.09-14.63,30.68-37.15,37-61.2,1.25-4.78,2.93-9.75,2.73-14.56-.32-7.67,3.31-8.3,9.15-6.89,1.08.26,2.17.46,4.2.88.38-4.71.76-8.85,1-13,2.13-32.07,4.37-64.12,13.55-95.19.46-1.55,1.2-3.57.61-4.78-6.17-12.45-2.21-25.22-.86-37.67,3.14-29.1,7-58.13,11-87.12a176.36,176.36,0,0,1,6.5-29.72c1.07-3.3,6.28-5.27,9.6-7.85,1.71,3,4.92,6,4.89,8.94-.33,29.51-.09,59.11-2.32,88.5-1.4,18.43-6.56,36.59-10.41,54.8-1.17,5.49-3,11-9.72,12.84-1.12.31-2.25,2.42-2.5,3.84-4.05,24-8.27,47.89-11.77,71.93-1.7,11.66-2,23.52-2.89,35.29-.06.81.3,1.64.84,4.31,3.42-9.77,6.21-17.85,9.08-25.91,9.63-27.12,19.43-54.19,28.82-81.4,1.73-5,1.12-10.83,2.83-15.85,8.26-24.33,16.25-48.79,25.65-72.69,11.32-28.75,23.93-57,36.1-85.42,1.41-3.31,2.74-7.75,8-5.88,4.88,1.73,6.9,4.81,5.14,10.42-16.92,54.1-32.43,109.11-60.65,158.4-19.64,34.31-30.41,71.27-43.82,107.6a26.11,26.11,0,0,0-1,4.13,9.92,9.92,0,0,0,.43,2.27c1.57-2.43,2.82-4.24,3.93-6.13,5.85-10,11.5-20.09,17.53-30C340,256,350,238.52,359.17,220.17c13.83-27.72,32-53.6,50.64-78.52,21.66-28.92,45.79-56,69-83.74,2.28-2.72,5.79-4.39,8.73-6.55L490,52.54c-.79,3.52-.77,7.53-2.53,10.47-11.28,18.87-22.17,38.05-34.66,56.1C429.13,153.33,404.65,187,380,220.55c-5.23,7.11-12.7,12.56-19.12,18.79a18.05,18.05,0,0,0-2.84,3.1Q337.46,275.18,317,308a70,70,0,0,0-3.35,7.3c8.9-1.37,9.47,2.22,7.37,9.13-5.72,18.88-8.18,38.26-6.15,58,1.83,17.92,7,34.63,18.48,48.9,1.39,1.74,3.59,2.84,5.39,4.26,4.82,3.78,10.24,7,14.33,11.47,9.46,10.29,8.44,24-2.9,32.2-6.35,4.56-14.1,7.32-21.49,10.2-4.55,1.77-9.61,2.25-15.43,3.52,4.22,5.28,7.66,10.26,11.77,14.6,8.11,8.56,12.56,18.87,14.76,30.15a33.39,33.39,0,0,1-.14,13.36c-4.79,21.41-34.1,44-55.88,43.3-3.52-.11-7-1.24-10.52-1.35a58.94,58.94,0,0,0-13.09.57c-16.59,3.22-32-1-46.85-7.52-5.53-2.42-10.08-7.06-15.61-9.48a152.22,152.22,0,0,0-23.83-8.15c-24.27-6.08-48.51-12.4-73-17.26-24.3-4.82-48.95-7.85-73.4-11.94C21.54,538.3,15.8,536.23,10,534.66Zm313-285.91c1.12-1.33,2.67-2.49,3.28-4,3.93-9.82,7.67-19.71,11.41-29.6.83-2.2,1.38-4.5,2.06-6.76l-2.42-.76q-7.1,20.64-14.15,41.33l-9.38,23.73,2.36.8ZM185,421.9l1.31,2.66c2.56.35,5.11.84,7.68,1.05,28.24,2.32,56.59,3.66,84.67,7.17,22.83,2.86,45.74,7.34,62.8,27.48,0-2.55.29-3.93,0-5.13-3.44-12-8.68-22.83-19.11-30.63A51.16,51.16,0,0,1,312,413.92c-15.09-20.46-16-43.93-13.3-67.86,1-9,3.53-17.8,5.4-26.84l-24.24-4.89c-.82,3.32-1.2,5.89-2.07,8.28-5.52,15-9.91,30.58-17,44.79-11.14,22.22-32,33.31-54,42.48C199.14,413,192.23,417.85,185,421.9Zm-17.58,82.78a17.83,17.83,0,0,0,2.18,2c32.13,17.79,66,30.24,102.76,34.17,12,1.29,24.09,2,35.65-2.65,13.28-5.4,15.44-10.31,7.93-22.26-6.64-10.56-14.66-20.58-28.19-22.73-20.79-3.3-41.54-6.87-60.55-16.28-6.67-3.31-12.43-3.84-19.24-1.5C191.57,481,176.43,488.19,167.42,504.68Zm152.75,30.43c-17.22,8.46-21.51,9.26-35.22,9-29.26-.55-56.8-8.4-83.59-19.32-11.91-4.85-23.4-10.72-35.82-16.46a76.24,76.24,0,0,0-1.37,8.7c-.64,16.43,6.76,29.8,17.19,41.47,5.19,5.81,11.28,12.49,18.26,14.71,19.52,6.21,39.68,10.4,59.65,15.13,3.55.84,8.13,1.84,11,.36,10.62-5.51,21.38-11.15,30.83-18.37C312.25,561.78,318.66,549.72,320.17,535.11Zm-16.3-52.64c6.39-1.69,17-3.89,27.12-7.38,8.47-2.91,10.23-10.77,4-17.38a52.3,52.3,0,0,0-14.67-10.79c-18.48-9.09-38.58-12.12-58.83-13.83-23.28-2-46.62-3.25-69.91-5.11-8-.64-9.3.6-6.29,8.25,3.62,9.2,10.63,14.57,19.19,19.49C234,472.7,265.66,480.88,303.87,482.47ZM487.52,55.77c-1.41.32-2.24.27-2.7.65-2.55,2.11-5.34,4-7.44,6.55-19.44,23.18-39.89,45.63-57.79,69.95-20.55,27.9-39,57.37-57.89,86.47-3.42,5.27-4.54,12-7.2,19.47C374.58,230.57,476.05,89.77,487.52,55.77ZM331.38,36.07c-6.9,2.53-9.39,6.57-10.77,16.85-5,37.41-10.24,74.8-14.91,112.26-1,8.37-.15,17-.15,25.47l1.35.19q3.5-7.72,7-15.46c6.28,7.1-3,13,.19,19.58C329.08,184,342.65,60.18,331.38,36.07ZM404.93,29c-1.16,2.07-2.35,3.82-3.18,5.74C392.21,56.76,382.08,78.6,373.37,101c-11.78,30.3-22.6,61-33.43,91.63-1.32,3.72-.18,8.32-.18,12.52l2.69,1c3.13-4.71,7-9.09,9.26-14.19,10.29-23.27,21-46.42,29.9-70.24C391.92,94.18,400.52,66,409.85,38,411.25,33.83,411.72,30,404.93,29ZM276.17,590.86a59.4,59.4,0,0,0,6.71,1c19.81.75,48.08-19.88,53.61-39,3.62-12.53-2.85-33.54-12.78-40.85C326.68,549.54,310.83,575.55,276.17,590.86Zm42.45-268.1c-11.27-2.85-12.5-2.31-14.55,7.23-5.2,24.11-7,48.22,3.73,71.37,3.36,7.23,8.76,13.52,13.23,20.23l1.94-1.15C306.81,388.54,310.27,355.65,318.62,322.76Zm-116,135.66c10.36,10.1,21.32,16.06,44,23.22,19.62,6.19,39.63,10.37,60.44,9.42,10.73-.49,17.5-3.72,22.2-10.95C284.8,491.53,243.9,478.63,202.67,458.42ZM337.5,438.73c13.2,20.47,2.22,34-9,47.59,12.91-1.58,26.12-11.29,27.7-20.21C358,455.75,352.36,446.75,337.5,438.73ZM292.92,302c5-34,10.12-68.56,15.23-103.16C297,232.58,295.09,267.63,292.92,302Zm-87,275.71q22.34,15.73,49,13.51c-13.75-4.41-27.67-8.13-41.61-11.82C210.8,578.74,208.33,578.25,205.88,577.69ZM321.6,517.3c-.77-16-10.57-26.35-20.67-22.67C307.67,502,314.69,509.72,321.6,517.3Zm-6.07-217.24,2,1.05,36-56.58-1.81-1.13Z" transform="translate(-9.98 -26.26)"/></g></svg>