<svg id="Layer_1" data-name="Layer 1" xmlns="http://www.w3.org/2000/svg" viewBox="0 0 453.61 328.83"><title>Cag 4</title><g id="_4" data-name="4"><path d="M61.66,498c-5.1-29.56-10.22-58.58-15.09-87.65S36.5,352.12,32.48,322.84c-4-29-6.67-58.2-10.07-88.53l413.64-65.1c.85,9.93,1.41,18.65,2.36,27.33,2.37,21.85,4.42,43.75,7.52,65.51C449.75,289,454,315.81,459,342.53c4.79,25.84,10.68,51.49,16,77.23,1.87,8.91,1.9,9.29-7.11,11.29-18.45,4.07-36.94,7.95-55.5,11.48q-39.27,7.46-78.66,14.25c-23.95,4.13-47.94,7.94-71.94,11.74q-36.27,5.75-72.58,11.18c-19.6,2.92-39.25,5.52-58.85,8.4-20.12,2.95-40.21,6.09-60.32,9.11C67.44,497.6,64.77,497.74,61.66,498ZM433.82,171.91,26,236C30.91,324.22,49,409.54,63.72,495.8c137.81-20.36,275-38.55,410.87-68.43C454,343.08,441.2,258.46,433.82,171.91Z" transform="translate(-22.41 -169.21)"/><path d="M77.31,481.77C70.43,441.92,63.09,403,57.14,363.86,51.25,325.08,46.76,286.1,41.5,246L424.11,185.6c1.22,14,2.11,26.64,3.49,39.25,1.88,17.17,3.7,34.37,6.32,51.44,4.16,27,8.58,54,13.63,80.89,3.63,19.26,8.4,38.3,12.83,57.4.67,2.89,0,3.84-2.81,4.39-24.51,4.91-49,10.12-73.5,14.85-19.09,3.67-38.26,6.94-57.44,10.13-34.47,5.74-68.95,11.46-103.48,16.87-35.58,5.57-71.21,10.83-106.84,16.05C103.53,478.74,90.68,480.1,77.31,481.77ZM421.75,188.41l-375.84,59c3.85,78.91,20.67,155.12,33.28,231.78a42,42,0,0,0,5.26,0c40.63-6,81.29-11.88,121.88-18.19q63.3-9.86,126.48-20.5c32.49-5.52,64.88-11.66,97.29-17.7,9.31-1.74,18.5-4.09,28.08-6.24C440,341.06,428.59,265.39,421.75,188.41Z" transform="translate(-22.41 -169.21)"/></g></svg>