<svg xmlns="http://www.w3.org/2000/svg" viewBox="0 0 473.17 206.81"><defs><style>.cls-1{fill:CurrentColor;}.cls-2{fill:CurrentColor;}</style></defs><title>GyaraGyaraLogo2</title><g id="Layer_2" data-name="Layer 2"><g id="Layer_1-2" data-name="Layer 1"><path class="cls-1" d="M215.45,44.74c-5.62,0-11.06,0-16.49,0-1.54,0-2.16-.42-2.1-2,.11-2.58.09-5.17,0-7.76,0-1.42.58-1.86,1.9-1.85q13.23,0,26.47,0c1.1,0,1.31.56,1.46,1.42a26.83,26.83,0,0,1-28.43,32.08c-14.78-1.08-27.13-13.38-28.51-28.36A35.24,35.24,0,0,1,200.3.48c15.06-2.16,27.33,2.91,36.21,15.3,6.15,8.59,8.17,18.38,6.74,28.82S236.86,63.68,229.46,71c-4.76,4.7-7.78,10.22-7.9,17-.16,9.76,6.65,18,16.54,20.34,9.58,2.25,18.25-.9,23.84-8.7A16.75,16.75,0,0,0,265.07,90c0-1.67-.58-1.92-2-1.91-7,.06-13.94,0-20.9.06-1.45,0-2.13-.21-2-1.89.15-2.71.08-5.44,0-8.16,0-1.08.24-1.49,1.42-1.49,11.14,0,22.29,0,33.43,0,.77,0,1.46-.06,1.45,1.06,0,6.28.74,12.57-.73,18.82a31.93,31.93,0,0,1-30,24.81c-14.43.47-25.7-5.33-32.21-18.31-6.38-12.73-4.18-25,4.09-36.42,2.93-4,6.87-7.17,9.67-11.33,7.8-11.63,6.08-28-4-37C209.5,6,186.39,12.7,182,30.16c-3.07,12.24,6.78,24.9,19.11,24.55C206.51,54.56,213.28,49.93,215.45,44.74Z"/><path class="cls-2" d="M22.42,206.81q-10.7,0-16.56-6.17T0,183.21q0-10.65,6.18-17.3t16.11-6.64A32.77,32.77,0,0,1,37,162.78l.71,10.38H35.88l-2.5-4q-4.11-6.28-11.09-6.28a13,13,0,0,0-11,5.67q-4.2,5.66-4.2,14.77t4.39,14.36A14.35,14.35,0,0,0,23.25,203c3.85,0,6.65-.75,8.4-2.23V191.3a3.43,3.43,0,0,0-.64-2.16,5.65,5.65,0,0,0-2.37-1.48L26,186.51v-1.82H41.58v1.82l-1.48.88a3.51,3.51,0,0,0-1.73,3.37V202Q32.36,206.81,22.42,206.81Z"/><path class="cls-2" d="M74.76,206.14H56.57v-1.82l2.88-1.22a6,6,0,0,0,2.31-1.48,3.37,3.37,0,0,0,.57-2.09V188.87L50,166.35a16.8,16.8,0,0,0-1.53-2.49,4.26,4.26,0,0,0-1.61-1.08l-2.24-1v-1.82H61.56v1.82l-2.11.88c-1.54.68-2.31,1.33-2.31,2a4.26,4.26,0,0,0,.65,2l9.6,17.53,8.91-17.39a5.34,5.34,0,0,0,.64-2,1.43,1.43,0,0,0-.48-1.11,6.53,6.53,0,0,0-1.95-1l-2.25-.88v-1.82h14v1.82l-2.56,1.08a5.37,5.37,0,0,0-1.61,1.08,8.88,8.88,0,0,0-1.28,2L69.06,188.27v11.26a3.31,3.31,0,0,0,.58,2.09,5.88,5.88,0,0,0,2.24,1.48l2.88,1.22Z"/><path class="cls-2" d="M98.85,206.14h-14v-1.82l2.5-1.08a4.75,4.75,0,0,0,2-1.28,9.05,9.05,0,0,0,1.25-2.5l14.29-38.84,4.87-1.35,15,40.46a7.23,7.23,0,0,0,1.18,2.33,6.77,6.77,0,0,0,2,1.24l2.3,1v1.82h-17v-1.82l2.11-.88c1.67-.68,2.5-1.39,2.5-2.16a5.38,5.38,0,0,0-.45-1.82l-2.56-7H96.86l-2.43,6.81a7.77,7.77,0,0,0-.51,2,1.39,1.39,0,0,0,.54,1.08,7.52,7.52,0,0,0,2.15,1.08l2.24.88Zm6.79-38.31-7.49,21.11h15.24Z"/><path class="cls-2" d="M153.05,206.14H135.88v-1.82l2.5-1.08a5.37,5.37,0,0,0,2.05-1.49,3.92,3.92,0,0,0,.51-2.22v-33a4.11,4.11,0,0,0-.51-2.29,5,5,0,0,0-2.05-1.42l-2.5-1.08v-1.82h18.58q7.74,0,12.07,3.41a11.3,11.3,0,0,1,4.33,9.41,11.75,11.75,0,0,1-2.85,8,15.33,15.33,0,0,1-7.92,4.66,8,8,0,0,1,3.46,3.57l6,10.86a7.49,7.49,0,0,0,1.67,2.26,8.45,8.45,0,0,0,2.43,1.38l2.31.94v1.76H165.28l-8.77-15.92c-1.41-2.47-2.57-3.8-3.46-4h-5.38v13.29a3.52,3.52,0,0,0,.6,2.19,6.11,6.11,0,0,0,2.28,1.52l2.5,1.08Zm-5.38-42.76V182.8h5.83a10,10,0,0,0,7.33-2.83,9.73,9.73,0,0,0,2.85-7.21,8.78,8.78,0,0,0-2.85-6.71,10.2,10.2,0,0,0-7.27-2.67Z"/><path class="cls-2" d="M193.73,206.14h-14v-1.82l2.49-1.08a4.86,4.86,0,0,0,2-1.28,9.34,9.34,0,0,0,1.25-2.5l14.28-38.84,4.87-1.35,15,40.46a7.4,7.4,0,0,0,1.19,2.33,6.69,6.69,0,0,0,2,1.24l2.31,1v1.82H208v-1.82l2.12-.88c1.66-.68,2.5-1.39,2.5-2.16a5.63,5.63,0,0,0-.45-1.82l-2.57-7H191.74l-2.43,6.81a7.51,7.51,0,0,0-.52,2,1.37,1.37,0,0,0,.55,1.08,7.56,7.56,0,0,0,2.14,1.08l2.25.88Zm6.79-38.31L193,188.94h15.25Z"/><path class="cls-2" d="M270.6,206.81q-10.69,0-16.56-6.17t-5.86-17.43q0-10.65,6.18-17.3t16.11-6.64a32.77,32.77,0,0,1,14.67,3.51l.71,10.38h-1.8l-2.49-4q-4.11-6.28-11.09-6.28a13,13,0,0,0-11,5.67q-4.2,5.66-4.2,14.77t4.39,14.36a14.35,14.35,0,0,0,11.75,5.4c3.85,0,6.64-.75,8.4-2.23V191.3a3.43,3.43,0,0,0-.64-2.16,5.65,5.65,0,0,0-2.37-1.48l-2.63-1.15v-1.82h15.57v1.82l-1.48.88a3.51,3.51,0,0,0-1.73,3.37V202Q280.54,206.81,270.6,206.81Z"/><path class="cls-2" d="M322.94,206.14H304.75v-1.82l2.88-1.22a6,6,0,0,0,2.31-1.48,3.37,3.37,0,0,0,.57-2.09V188.87l-12.3-22.52a15.78,15.78,0,0,0-1.54-2.49,4.14,4.14,0,0,0-1.6-1.08l-2.24-1v-1.82h16.91v1.82l-2.11.88c-1.54.68-2.31,1.33-2.31,2a4.34,4.34,0,0,0,.64,2l9.61,17.53,8.91-17.39a5.34,5.34,0,0,0,.64-2,1.43,1.43,0,0,0-.48-1.11,6.49,6.49,0,0,0-2-1l-2.24-.88v-1.82h14v1.82l-2.56,1.08a5.37,5.37,0,0,0-1.61,1.08,8.88,8.88,0,0,0-1.28,2l-11.72,22.32v11.26a3.31,3.31,0,0,0,.58,2.09,5.88,5.88,0,0,0,2.24,1.48l2.88,1.22Z"/><path class="cls-2" d="M347,206.14H333v-1.82l2.5-1.08a4.89,4.89,0,0,0,1.95-1.28,9.05,9.05,0,0,0,1.25-2.5L353,160.62l4.87-1.35,15,40.46a7.23,7.23,0,0,0,1.18,2.33,6.63,6.63,0,0,0,2,1.24l2.3,1v1.82h-17v-1.82l2.12-.88c1.66-.68,2.5-1.39,2.5-2.16a5.38,5.38,0,0,0-.45-1.82l-2.56-7H345l-2.43,6.81a7.77,7.77,0,0,0-.51,2,1.39,1.39,0,0,0,.54,1.08,7.52,7.52,0,0,0,2.15,1.08l2.24.88Zm6.79-38.31-7.5,21.11h15.25Z"/><path class="cls-2" d="M401.23,206.14H384.06v-1.82l2.49-1.08a5.34,5.34,0,0,0,2.06-1.49,3.92,3.92,0,0,0,.51-2.22v-33a4.11,4.11,0,0,0-.51-2.29,4.94,4.94,0,0,0-2.06-1.42l-2.49-1.08v-1.82h18.57q7.75,0,12.08,3.41a11.33,11.33,0,0,1,4.33,9.41,11.76,11.76,0,0,1-2.86,8,15.26,15.26,0,0,1-7.91,4.66,8.07,8.07,0,0,1,3.46,3.57l6,10.86a7.49,7.49,0,0,0,1.67,2.26,8.31,8.31,0,0,0,2.43,1.38l2.31.94v1.76H413.46l-8.78-15.92c-1.4-2.47-2.56-3.8-3.45-4h-5.39v13.29a3.52,3.52,0,0,0,.61,2.19,6.11,6.11,0,0,0,2.28,1.52l2.5,1.08Zm-5.39-42.76V182.8h5.83A10,10,0,0,0,409,180a9.73,9.73,0,0,0,2.85-7.21,8.78,8.78,0,0,0-2.85-6.71,10.22,10.22,0,0,0-7.27-2.67Z"/><path class="cls-2" d="M441.91,206.14h-14v-1.82l2.49-1.08a4.86,4.86,0,0,0,2-1.28,9.34,9.34,0,0,0,1.25-2.5l14.28-38.84,4.87-1.35,15,40.46a7.19,7.19,0,0,0,1.19,2.33,6.69,6.69,0,0,0,1.95,1.24l2.31,1v1.82h-17v-1.82l2.11-.88c1.67-.68,2.5-1.39,2.5-2.16a5.56,5.56,0,0,0-.44-1.82l-2.57-7H439.92l-2.44,6.81a7.77,7.77,0,0,0-.51,2,1.37,1.37,0,0,0,.55,1.08,7.42,7.42,0,0,0,2.14,1.08l2.25.88Zm6.79-38.31-7.5,21.11h15.25Z"/></g></g></svg>