<svg xmlns="http://www.w3.org/2000/svg" version="1.1" xmlns:xlink="http://www.w3.org/1999/xlink" width="512" height="512" x="0" y="0" viewBox="0 0 512 512" style="enable-background:new 0 0 512 512" xml:space="preserve" class=""><g><path d="m484.018 170.463-15.984-23.539a8.224 8.224 0 0 0-7.022-3.603l-30.985.811a8.228 8.228 0 0 0-6.627 3.655l-3.155 4.725-32.145 20.573a8.23 8.23 0 0 0-3.757 6.165l-.698 7.477h-12.474l-24.531-19.986a8.23 8.23 0 0 0-12.667 2.932L323.76 191.8l-97.731-41.722 5.606-21.373a8.227 8.227 0 0 0-5.292-9.871l-8.112-2.78-13.356-20.421 1.913-.468a8.222 8.222 0 0 0 5.599-4.739 8.223 8.223 0 0 0-.408-7.325l-4.612-8.095 17.65-36.232a8.227 8.227 0 0 0-3.153-10.652l-15.863-9.55a8.182 8.182 0 0 0-4.679-1.167l-33.854 1.79L125.259.692a8.23 8.23 0 0 0-7.53.476L94.983 14.785a8.23 8.23 0 0 0-1.198 13.247l12.683 11.118.7 28.185a8.23 8.23 0 0 0 2.165 5.361l20.845 22.699-17.285 31.159a8.213 8.213 0 0 0-1.031 3.837l-.065 3.424-30.387 33.396-15.409-4.936a8.23 8.23 0 0 0-10.297 5.18l-8.483 24.879a8.228 8.228 0 0 0 2.787 9.19l4.37 3.344L65.5 227.631l.083 4.961-33.572 12.034a8.228 8.228 0 0 0-.844 15.134l10.272 5.032a8.228 8.228 0 0 0-2.066 11.294l12.545 18.684a8.212 8.212 0 0 0 3.19 2.792l20.351 10.039a8.227 8.227 0 0 0 10.181-2.388l8.967-11.753 4.829 11.443-2.897 15.235a8.232 8.232 0 0 0 .366 4.391l67.375 182.103c1.18 3.189 4.314 5.372 7.716 5.372a8.22 8.22 0 0 0 2.936-.542l16.495-6.3a8.234 8.234 0 0 0 4.396-3.951l3.62-7.104 5.625-6.869 14.134-16.951a8.225 8.225 0 0 0 1.78-3.828l7.456-41.929c.24-1.346.14-2.73-.291-4.028l-3.938-11.883 7.505-22.685 6.273-3.867 7.845-.926a8.223 8.223 0 0 0 5.669-3.304l9.725-13.256c3.284-1.371 7.145-2.423 9.787-4.883 3.121-2.906 6.049-6.051 9.063-9.067 2.41-2.41 4.739-4.433 6.095-7.618 1.523-3.574 2.982-7.177 4.472-10.765L319.9 316.17a8.23 8.23 0 0 0 4.203-6.2l1.432-11.569 10.941-8.369 14.679 2.924a8.226 8.226 0 0 0 9.545-10.23l-13.987-51.376 17.169-7.117 11.792 7.705a8.22 8.22 0 0 0 3.603 1.291l8.712.957-9.762 14.434a8.224 8.224 0 0 0-.355 8.644 8.195 8.195 0 0 0 7.573 4.183l6.436-.316 14.874 20.32a8.22 8.22 0 0 0 8.572 3.137 8.231 8.231 0 0 0 6.193-6.707l4.051-25.518 6.909 1.324a8.24 8.24 0 0 0 6.274-1.346 8.234 8.234 0 0 0 3.4-5.441l4.471-28.067 3.973-5.242a8.223 8.223 0 0 0 1.598-3.886l.67-5.043 24.203-8.41a8.227 8.227 0 0 0 5.348-6.065l2.839-13.395a8.21 8.21 0 0 0-1.238-6.329zm-16.732 11.77-24.606 8.549a8.226 8.226 0 0 0-5.455 6.687l-1.052 7.914-3.905 5.151a8.235 8.235 0 0 0-1.568 3.676l-3.46 21.717-6.913-1.325a8.233 8.233 0 0 0-9.675 6.791l-2.286 14.397-5.823-7.954a8.217 8.217 0 0 0-2.427-2.208l9.147-13.524a8.229 8.229 0 0 0-5.916-12.789l-20.317-2.23-13.781-9.005a8.227 8.227 0 0 0-7.652-.713l-27.874 11.555a8.227 8.227 0 0 0-4.787 9.761l12.397 45.537-5.291-1.053a8.221 8.221 0 0 0-6.605 1.534l-16.639 12.728a8.225 8.225 0 0 0-3.167 5.524l-1.339 10.821-28.098 15.441a8.225 8.225 0 0 0-3.634 4.053l-5.408 13.017-10.843 10.847-7.528 3.141a8.214 8.214 0 0 0-3.464 2.726l-8.962 12.216-6.098.72a8.237 8.237 0 0 0-3.354 1.167l-10.372 6.394a8.223 8.223 0 0 0-3.494 4.42l-9.301 28.118a8.22 8.22 0 0 0 .001 5.172l4.139 12.49-6.708 37.728-12.779 15.328-6.234 7.611a8.146 8.146 0 0 0-.965 1.478l-2.585 5.074-5.771 2.204-63.696-172.16 2.934-15.431a8.242 8.242 0 0 0-.502-4.736l-6.716-15.911.387-13.143a8.228 8.228 0 0 0-14.765-5.231L76.67 289.846l-12.309-6.073-5.622-9.546 4.645-2.43a8.23 8.23 0 0 0-.194-14.679l-3.89-1.906-3.407-1.67 20.795-7.454a8.23 8.23 0 0 0 5.45-7.882l-.211-12.683a8.225 8.225 0 0 0-.835-3.475l-12.778-26.151a8.222 8.222 0 0 0-2.393-2.922l-1.214-.929 3.968-11.638 12.755 4.086a8.226 8.226 0 0 0 8.595-2.298l36.03-39.596a8.219 8.219 0 0 0 2.141-5.383l.083-4.47 19.17-34.556a8.23 8.23 0 0 0-1.134-9.556l-22.77-24.795-.712-28.704a8.236 8.236 0 0 0-2.802-5.983l-6.902-6.051 9.413-5.636L162.65 35.05a8.24 8.24 0 0 0 3.739.681l33.288-1.761 7.252 4.366-16.253 33.367a8.227 8.227 0 0 0 .248 7.676l1.365 2.396-2.618.641a8.227 8.227 0 0 0-4.928 12.495l21.267 32.513a8.227 8.227 0 0 0 4.219 3.28l3.553 1.218-5.467 20.846a8.23 8.23 0 0 0 4.729 9.655l111.611 47.647a8.224 8.224 0 0 0 10.7-4.119l9.118-19.755 18.579 15.135a8.23 8.23 0 0 0 5.196 1.85h22.895a8.228 8.228 0 0 0 8.192-7.463l1.021-10.94 30.212-19.336a8.228 8.228 0 0 0 2.407-2.36l1.744-2.612 22.231-.583 11.49 16.92-1.154 5.426z" fill="#000000" opacity="1" data-original="#000000" class=""></path></g></svg>