<svg xmlns="http://www.w3.org/2000/svg" id="Capa_1" enable-background="new 0 0 512 512" height="512" viewBox="0 0 512 512" width="512"><g><path d="m509.066 401.545-49.161-49.161c-1.862-1.861-4.439-2.929-7.071-2.929h-27.119l-35.898-35.899c-1.89-1.889-4.4-2.929-7.071-2.929h-36.907c35.937-27.605 57.443-70.421 57.443-116.752 0-41.282-17.377-80.703-47.767-108.575-.288-1.103-.671-2.183-1.15-3.236-1.005-2.212-2.375-4.18-4.065-5.872l-23.74-23.739c-3.777-3.778-8.8-5.858-14.143-5.858h-113.895c-5.342 0-10.365 2.081-14.142 5.858l-23.74 23.738c-1.698 1.698-3.065 3.669-4.062 5.859-.675 1.483-1.162 3.02-1.457 4.596-12.223 11.498-22.312 24.85-30.012 39.727-1.904 3.679-.465 8.204 3.213 10.108 3.693 1.911 8.211.451 10.108-3.214 4.544-8.78 10.016-16.97 16.35-24.486v7.969c0 9.975 6.525 18.455 15.531 21.396v80.396c-9.006 2.941-15.531 11.421-15.531 21.396v8.562c0 8.271 6.729 15 15 15h132.281c4.143 0 7.5-3.357 7.5-7.5s-3.357-7.5-7.5-7.5h-132.28v-8.562c0-4.136 3.364-7.5 7.5-7.5h156.375c4.136 0 7.5 3.364 7.5 7.5v8.562h-3.094c-4.143 0-7.5 3.357-7.5 7.5s3.357 7.5 7.5 7.5h3.094c8.271 0 15-6.729 15-15v-8.562c0-9.975-6.525-18.455-15.531-21.396v-80.396c9.006-2.941 15.531-11.421 15.531-21.396v-9.279c20.586 23.88 32.125 54.524 32.125 86.404 0 49.358-27.178 94.276-70.927 117.225-8.314 4.36-15.471 10.569-20.694 17.957l-40.66 57.503-40.669-57.515c-5.246-7.419-12.302-13.574-20.405-17.8-43.921-22.903-71.207-67.876-71.208-117.367 0-9.923 1.107-19.816 3.29-29.404.919-4.039-1.609-8.059-5.648-8.978-4.041-.923-8.059 1.608-8.978 5.647-2.431 10.68-3.664 21.692-3.664 32.734.001 47.717 22.78 91.66 60.64 119.139-.2.171-.394.35-.583.538l-59.196 59.196h-26.919c-2.671 0-5.183 1.04-7.071 2.929l-72.655 72.656c-2.871 2.871-3.722 7.149-2.167 10.9 1.548 3.736 5.164 6.171 9.241 6.171l90.792-.027c4.142-.001 7.499-3.36 7.498-7.502s-3.359-7.498-7.5-7.498c-.853 0 .842 0-78.718.023l62.65-62.65h26.92c2.669 0 5.18-1.039 7.071-2.929l59.196-59.196h12.019c5.181 3.057 9.696 7.198 13.146 12.078l42.711 60.402c2.339 3.308 6.154 5.282 10.206 5.282 4.051 0 7.866-1.975 10.206-5.283l42.702-60.39c3.392-4.798 7.92-8.941 13.193-12.09h58.573l35.904 35.904c1.89 1.886 4.398 2.924 7.066 2.924h27.118l39.161 39.161h-89.576c-2.668 0-5.177 1.038-7.072 2.929l-43.764 43.765-213.716.069c-4.142.001-7.499 3.36-7.498 7.502s3.359 7.498 7.5 7.498c.109 0 45.28-.015 215.787-.07 2.67 0 5.181-1.04 7.07-2.929l43.763-43.764h99.577c4.06 0 7.686-2.423 9.239-6.173 1.555-3.748.705-8.026-2.166-10.897zm-196.65-339.951c1.336 0 2.591.52 3.535 1.464l14.598 14.598h-23.851l-8.031-16.062zm-49.447 108.719h8.562c4.136 0 7.5 3.364 7.5 7.5v39.625h-16.062zm-15 47.125h-16.062v-39.625c0-4.136 3.364-7.5 7.5-7.5h8.562zm23.562-62.125h-32.125c-12.407 0-22.5 10.094-22.5 22.5v39.625h-31.594v-78.188h8.563c5.757 0 11.016-2.174 15-5.744 3.984 3.57 9.243 5.744 15 5.744h16.594c5.757 0 11.016-2.174 15-5.744 3.984 3.57 9.243 5.744 15 5.744h16.594c5.757 0 11.016-2.174 15-5.744 3.984 3.57 9.243 5.744 15 5.744h8.562v78.188h-31.594v-39.625c0-12.407-10.093-22.5-22.5-22.5zm-42.49-93.719h18.927v16.062h-26.958zm52.855 0 8.031 16.062h-26.959v-16.062zm-65.521 31.062h31.594v24.094c0 4.136-3.364 7.5-7.5 7.5h-16.594c-4.136 0-7.5-3.364-7.5-7.5zm46.594 0h31.594v24.094c0 4.136-3.364 7.5-7.5 7.5h-16.594c-4.136 0-7.5-3.364-7.5-7.5zm-67.983-29.598c.944-.944 2.2-1.464 3.536-1.464h13.75l-8.031 16.062h-23.852zm-25.205 29.598h31.594v24.094c0 4.136-3.364 7.5-7.5 7.5h-16.594c-4.136 0-7.5-3.364-7.5-7.5zm171.375 24.094c0 4.136-3.364 7.5-7.5 7.5h-16.594c-4.136 0-7.5-3.364-7.5-7.5v-24.094h31.594z"/></g></svg>