<svg width="42" height="42" viewBox="0 0 42 42" fill="none" xmlns="http://www.w3.org/2000/svg">
<path d="M40.9181 17.9289C40.5224 17.2401 39.6351 16.9981 38.9364 17.3884C38.2377 17.7785 37.9922 18.6533 38.3881 19.3421L40.9181 17.9289ZM32.4864 12.9592C33.054 13.5193 33.9747 13.5197 34.5427 12.9602C35.1108 12.4007 35.1113 11.4931 34.5437 10.933L32.4864 12.9592ZM15.5481 33.7323L7.56706 25.8564L5.50972 27.8825L13.4907 35.7586L15.5481 33.7323ZM31.1238 24.9277L27.4072 26.3044L28.43 28.9882L32.1467 27.6115L31.1238 24.9277ZM15.0972 14.1245L16.4436 10.5019L13.713 9.51565L12.3667 13.1383L15.0972 14.1245ZM9.29655 19.3933C10.6759 19.0183 11.7254 18.7549 12.5836 18.1458L10.8845 15.8192C10.5492 16.0572 10.114 16.1973 8.52365 16.6295L9.29655 19.3933ZM12.3667 13.1383C11.7987 14.6664 11.621 15.0835 11.3528 15.3938L13.5661 17.2533C14.2519 16.46 14.6045 15.4501 15.0972 14.1245L12.3667 13.1383ZM12.5836 18.1458C12.9463 17.8884 13.2762 17.5887 13.5661 17.2533L11.3528 15.3938C11.2145 15.5537 11.0573 15.6965 10.8845 15.8192L12.5836 18.1458ZM27.4072 26.3044C26.0712 26.7992 25.0528 27.1541 24.2548 27.8353L26.1586 30.0027C26.4704 29.7364 26.8899 29.5587 28.43 28.9882L27.4072 26.3044ZM24.9212 32.7789C25.358 31.214 25.4997 30.7851 25.7403 30.4543L23.3776 28.7831C22.7624 29.6284 22.4963 30.6609 22.1172 32.0185L24.9212 32.7789ZM24.2548 27.8353C23.9259 28.1163 23.6314 28.4343 23.3776 28.7831L25.7403 30.4543C25.8614 30.288 26.0018 30.1364 26.1586 30.0027L24.2548 27.8353ZM7.56706 25.8564C6.31441 24.6202 5.46493 23.7787 4.91372 23.096C4.36057 22.4108 4.30346 22.1142 4.30261 21.9811L1.39462 21.9993C1.40176 23.112 1.96227 24.0438 2.63839 24.8813C3.31643 25.7211 4.30786 26.6964 5.50972 27.8825L7.56706 25.8564ZM8.52365 16.6295C6.88503 17.075 5.53467 17.4396 4.52463 17.8395C3.51738 18.2379 2.56305 18.7754 1.99961 19.7398L4.51961 21.1706C4.58672 21.0557 4.78433 20.8258 5.60803 20.4999C6.42895 20.175 7.58856 19.8575 9.29655 19.3933L8.52365 16.6295ZM4.30261 21.9811C4.30078 21.6966 4.37572 21.4169 4.51961 21.1706L1.99961 19.7398C1.59832 20.4267 1.38954 21.2065 1.39462 21.9993L4.30261 21.9811ZM13.4907 35.7586C14.7002 36.9522 15.6948 37.9366 16.5513 38.6092C17.4054 39.2799 18.3571 39.8355 19.4936 39.8372L19.4979 36.9703C19.3633 36.9701 19.0619 36.9155 18.3632 36.3667C17.6668 35.8199 16.8087 34.9765 15.5481 33.7323L13.4907 35.7586ZM22.1172 32.0185C21.6438 33.7147 21.3201 34.8666 20.9883 35.6816C20.6553 36.4994 20.4203 36.6943 20.3028 36.7605L21.7442 39.2504C22.731 38.6952 23.2801 37.7488 23.687 36.7494C24.0951 35.7473 24.4669 34.4064 24.9212 32.7789L22.1172 32.0185ZM19.4936 39.8372C20.2828 39.8383 21.0587 39.6361 21.7442 39.2504L20.3028 36.7605C20.0576 36.8985 19.7801 36.9707 19.4979 36.9703L19.4936 39.8372ZM32.1467 27.6115C34.786 26.6339 36.9223 25.8466 38.4403 25.016C39.9812 24.173 41.2151 23.1109 41.5833 21.4324L38.741 20.8265C38.6359 21.3051 38.2912 21.8187 37.0291 22.5092C35.7443 23.2122 33.8537 23.9167 31.1238 24.9277L32.1467 27.6115ZM29.6055 6.05972C27.5972 4.07786 25.9764 2.47304 24.5738 1.44642C23.1513 0.405299 21.652 -0.268475 19.9424 0.103359L20.569 2.90292C21.0531 2.79761 21.6719 2.89308 22.8404 3.74827C24.0286 4.61797 25.4716 6.03653 27.5481 8.08587L29.6055 6.05972ZM16.4436 10.5019C17.4549 7.78101 18.1598 5.89514 18.8676 4.61292C19.5636 3.35193 20.0847 3.00827 20.569 2.90292L19.9424 0.103359C18.2333 0.475136 17.1602 1.70814 16.3132 3.24261C15.4779 4.75584 14.691 6.88423 13.713 9.51565L16.4436 10.5019ZM38.3881 19.3421C38.7784 20.0213 38.823 20.4525 38.741 20.8265L41.5833 21.4324C41.8588 20.1767 41.547 19.0229 40.9181 17.9289L38.3881 19.3421ZM27.5481 8.08587L32.4864 12.9592L34.5437 10.933L29.6055 6.05972L27.5481 8.08587Z" fill="black"/>
<path d="M0.425345 38.6456C-0.142188 39.2056 -0.141723 40.1133 0.426392 40.6729C0.994507 41.2323 1.91516 41.2319 2.48269 40.6717L0.425345 38.6456ZM11.5039 31.7693C12.0714 31.2091 12.071 30.3015 11.5028 29.7421C10.9347 29.1826 10.0141 29.183 9.44654 29.743L11.5039 31.7693ZM2.48269 40.6717L11.5039 31.7693L9.44654 29.743L0.425345 38.6456L2.48269 40.6717Z" fill="black"/>
</svg>
