<?xml version="1.0" encoding="UTF-8"?><svg id="b" xmlns="http://www.w3.org/2000/svg" viewBox="0 0 175.55 184.43"><defs><style>.d{fill:#eb855e;}.e{fill:none;stroke:#3d3a3a;stroke-miterlimit:10;}.f{fill:#f9e8c9;}.g{fill:#e79f4f;}</style></defs><g id="c"><path class="f" d="M31.6,156.94c-1.23.01-2.51.04-3.58.62-2.95,1.61-2.43,6.06-.82,9,3.65,6.69,10.57,11.13,17.85,13.39s15,2.61,22.63,2.88c34.03,1.23,68.1,1.45,102.15.67.72-.02,1.45-.03,2.14-.24,2.34-.71,3.52-3.4,3.59-5.84.16-5.75-4.21-10.84-9.4-13.31-5.19-2.47-11.09-2.85-16.83-3.19-39.45-2.33-78.35-4.32-117.72-3.99Z"/><path class="g" d="M5.57,53.84c-2.71,7.68-3.84,15.85-4.08,23.99-.4,14.02,1.91,28.25,7.95,40.91,8.4-8.79,16.8-17.58,25.2-26.37,5.21-5.46,10.45-10.94,14.71-17.17,11.56-16.89,15.13-39,9.47-58.66C49.55-15.72,9.88,41.64,5.57,53.84Z"/><path class="g" d="M121.8,39.51c-4.99,33.32,8.85,68.82,35.08,89.97,12-19.15,17.8-42.56,13.83-64.8-2.85-15.94-11.05-31.54-23.36-42.2-4.21-3.65-11.17-8.98-17.12-6.05-6.67,3.28-7.48,16.7-8.44,23.09Z"/><path class="e" d="M96.05,146.54c-3.46,1.27-7.45,1.03-10.74-.64,6.85-4.24,14.66-6.95,20.89-12.04,10.39-8.48,14.81-22.08,18.73-34.9-19.36-.23-36.63,18.84-34.49,38.08-1.13-12.63-8.42-24.56-19.15-31.33,6.18,4.37,3.06,16.21-4.48,16.95-2.85.28-5.65-.74-8.48-1.15-10.16-1.46-20.74,6.35-22.34,16.48.29-13.15,5.69-26.12,14.81-35.6,3.8-3.94,8.92-7.49,14.32-6.58,2.89.49,5.43,2.21,7.65,4.12,7.17,6.16,12.14,14.82,13.86,24.11-3-14.49,10.64-26.96,13.65-41.44,2.66-12.79-3.04-27.13,3.07-38.68,4.17-7.89,12.77-12.21,20.84-16.04,2.82-1.34,6.04-2.7,8.95-1.58,2.43.93,3.92,3.32,5.19,5.59,11.84,21.13,19.49,44.6,22.36,68.65-.46-26.59-7.47-53.05-20.23-76.38-1.25-2.29-3.11-4.87-5.72-4.69,1.16,9.4-4.12,18.22-6.98,27.25-5.46,17.29-1.54,37.23,10.05,51.17,3.91,4.7,8.63,8.77,11.75,14.02s4.33,12.29.85,17.31c15.88-12.38,21.54-34.59,18.78-54.53-2.75-19.95-12.61-38.15-23.07-55.36-1.35-2.22-2.86-4.56-5.26-5.55-2.16-.89-4.61-.51-6.87.09-11.42,3.03-20.87,10.98-29.16,19.4-8.34,8.47-16.07,17.85-20.65,28.82-4.59,10.97-5.75,23.78-1.06,34.71,1.19,2.76,2.96,5.58,5.81,6.55,6.7-21.25,12.99-45.96.65-64.52-4.3-6.46-10.48-11.41-15.62-17.23-5.14-5.82-9.42-13.21-8.56-20.92-16.38,4.33-29.12,17.8-36.61,32.99-7.49,15.2-10.66,36.69-13.59,53.38.52-24.66,7.35-49.16,19.67-70.52,2.79-4.85,6.36-9.91,11.78-11.29,5.42-1.39,12.27,3.63,10.39,8.9-3.29,2.92-7.94-4.53-12-2.84-1.56.65-2.28,2.43-2.65,4.07-2.42,10.73,3.31,21.41,5.25,32.23,2.73,15.25-2.66,31.72-13.89,42.4-9.19,8.75-22.29,14.29-27.28,25.97-15.39-39.07-.24-87.86,34.56-111.35,1.4-.94,2.95-1.88,4.63-1.78,1.6.1,2.97,1.12,4.22,2.11,9.24,7.28,17.94,15.24,26.03,23.78,4.08,4.31,8.06,8.86,10.59,14.23,8.85,18.77-2.01,40.22-7.47,60.24-4.19,15.37-5.13,31.62-2.71,47.37.26,1.67.6,3.45,1.79,4.66,1.82,1.87,4.82,1.68,7.41,1.34,13.65-1.8,27.23-4.02,40.74-6.68,5.8-1.14,13.53-1.41,15.78,4.06-23.32.28-46.65-.21-69.94-1.48-16.82-.92-32.46.93-49.32,2.99,1.35,3.12,5.53,3.4,8.73,4.53,3.21,1.12,5.71,6.08,2.6,7.45,7.45,2.22,11.62,10.31,18.58,13.77,4.26,2.12,9.18,2.32,13.93,2.44,18,.47,36.02.42,54.01-.15,4.65-.15,10.06-.74,12.54-4.68,1.69-2.69,1.43-6.16,2.5-9.15,3.66-10.31,19.06-9.46,27.03-16.95-7.43-2.71-16.34-.81-22.02,4.69-5.69,5.5-7.88,14.34-5.42,21.86,12.59.06,25.17.11,37.76.16"/><path class="d" d="M60.17,168.74c3.22,0,3.22-5,0-5s-3.22,5,0,5h0Z"/><path class="d" d="M58.57,160.35c3.22,0,3.22-5,0-5s-3.22,5,0,5h0Z"/><path class="d" d="M57.49,148.8c3.22,0,3.22-5,0-5s-3.22,5,0,5h0Z"/></g></svg>