<svg xmlns="http://www.w3.org/2000/svg" version="1.1" xmlns:xlink="http://www.w3.org/1999/xlink" width="512" height="512" x="0" y="0" viewBox="0 0 60 60" style="enable-background:new 0 0 512 512" xml:space="preserve" class=""><g><g fill="#000" fill-rule="nonzero"><path d="M20 26c0 5.523 4.477 10 10 10s10-4.477 10-10-4.477-10-10-10c-5.52.006-9.994 4.48-10 10zm18 0a8 8 0 1 1-8-8 8.009 8.009 0 0 1 8 8z" fill="#000000" opacity="1" data-original="#000000" class=""></path><path d="m41.431 9.572 12.705 12.479c.527.515.837 1.213.864 1.949v20c0 1.358 2.178 5.672 3.113 7.463a1 1 0 1 0 1.774-.926C58.522 47.925 57.031 44.682 57 44V23.97a4.882 4.882 0 0 0-1.459-3.345l-.137-.134C52.812 8.537 42.236.007 30.004.007s-22.808 8.53-25.4 20.484l-.138.135A4.89 4.89 0 0 0 3 24v20c-.031.688-1.522 3.931-2.887 6.542a1 1 0 1 0 1.774.926C2.822 49.671 5 45.357 5 44V24.028c.02-.745.33-1.453.861-1.976L18.568 9.573a2.04 2.04 0 0 1 2.71-.106 2.013 2.013 0 0 1 .255 2.84l-7.286 8.7c-.014 0-.027-.006-.041-.007A4 4 0 0 0 10 25v11a1 1 0 0 0 2 0V25a2 2 0 0 1 2.106-2A2.115 2.115 0 0 1 16 25.164v10.188a2.908 2.908 0 0 0 .639 1.849A5.9 5.9 0 0 1 18 41a14.894 14.894 0 0 1-4.707 11.293 15.078 15.078 0 0 0-2.176 4.05c-.343.779-.684 1.557-1.012 2.211a1 1 0 1 0 1.79.894c.339-.68.7-1.49 1.052-2.3a17.62 17.62 0 0 1 1.76-3.441 18.763 18.763 0 0 0 3.431-4.583 25.892 25.892 0 0 0 23.724 0 18.787 18.787 0 0 0 3.431 4.584 17.575 17.575 0 0 1 1.76 3.44c.356.81.713 1.62 1.052 2.3a1 1 0 0 0 1.79-.894c-.328-.654-.669-1.432-1.012-2.211a15.078 15.078 0 0 0-2.176-4.05A14.894 14.894 0 0 1 42 41a5.9 5.9 0 0 1 1.361-3.8A2.9 2.9 0 0 0 44 35.352V25.164A2.115 2.115 0 0 1 45.894 23 2 2 0 0 1 48 25v11a1 1 0 0 0 2 0V25a4 4 0 0 0-4.206-4c-.014 0-.027.006-.041.007l-7.285-8.7a2.014 2.014 0 0 1 .252-2.84 2.042 2.042 0 0 1 2.711.105zM30 50a23.984 23.984 0 0 1-11.057-2.711A17.953 17.953 0 0 0 20 41v-.056a17.891 17.891 0 0 0 20 0V41a17.953 17.953 0 0 0 1.057 6.29A23.984 23.984 0 0 1 30 50zm13.745-28.273A4.2 4.2 0 0 0 42 25.164v10.188a.9.9 0 0 1-.182.575 7.913 7.913 0 0 0-1.211 2.038c-6.048 5.38-15.166 5.38-21.214 0a7.925 7.925 0 0 0-1.211-2.037.9.9 0 0 1-.182-.576V25.164a4.2 4.2 0 0 0-1.745-3.437l6.812-8.136c.56-.675.883-1.516.916-2.393a16.057 16.057 0 0 1 12.034 0c.033.877.356 1.718.917 2.393zM37.438 7.932a4.01 4.01 0 0 0-1.011 1.282 18.067 18.067 0 0 0-12.855 0 4.012 4.012 0 0 0-6.4-1.068L7.521 17.62a23.984 23.984 0 0 1 44.957 0l-9.646-9.475a4.012 4.012 0 0 0-5.394-.213z" fill="#000000" opacity="1" data-original="#000000" class=""></path></g></g></svg>